<svg width="65" height="64" viewBox="0 0 65 64" fill="none" xmlns="http://www.w3.org/2000/svg">
<path d="M50.2327 27.4502C50.2327 26.2076 49.2253 25.2002 47.9827 25.2002C46.74 25.2002 45.7327 26.2076 45.7327 27.4502H50.2327ZM35.0571 12.8391C36.1854 13.3598 37.5222 12.8674 38.0429 11.7391C38.5636 10.6108 38.0712 9.274 36.9429 8.7533L35.0571 12.8391ZM31.8475 9.1395L31.2264 11.3021L31.8475 9.1395ZM45.7327 30.2176C45.7327 41.0576 36.7206 49.9351 25.4913 49.9351V54.4351C39.1053 54.4351 50.2327 43.6422 50.2327 30.2176H45.7327ZM25.4913 49.9351C14.2621 49.9351 5.25 41.0576 5.25 30.2176H0.75C0.75 43.6422 11.8773 54.4351 25.4913 54.4351V49.9351ZM5.25 30.2176C5.25 19.3776 14.2621 10.5 25.4913 10.5V6C11.8773 6 0.75 16.7929 0.75 30.2176H5.25ZM45.7327 27.4502C45.7327 27.4539 45.7327 27.4576 45.7327 27.4612C45.7327 27.4649 45.7327 27.4686 45.7327 27.4722C45.7327 27.4759 45.7327 27.4795 45.7327 27.4831C45.7327 27.4867 45.7327 27.4904 45.7327 27.494C45.7327 27.4976 45.7327 27.5012 45.7327 27.5047C45.7327 27.5083 45.7327 27.5119 45.7327 27.5154C45.7327 27.519 45.7327 27.5225 45.7327 27.5261C45.7327 27.5296 45.7327 27.5331 45.7327 27.5366C45.7327 27.5401 45.7327 27.5436 45.7327 27.5471C45.7327 27.5506 45.7327 27.5541 45.7327 27.5575C45.7327 27.561 45.7327 27.5644 45.7327 27.5679C45.7327 27.5713 45.7327 27.5748 45.7327 27.5782C45.7327 27.5816 45.7327 27.585 45.7327 27.5884C45.7327 27.5918 45.7327 27.5952 45.7327 27.5985C45.7327 27.6019 45.7327 27.6053 45.7327 27.6086C45.7327 27.612 45.7327 27.6153 45.7327 27.6187C45.7327 27.622 45.7327 27.6253 45.7327 27.6286C45.7327 27.6319 45.7327 27.6352 45.7327 27.6385C45.7327 27.6418 45.7327 27.6451 45.7327 27.6483C45.7327 27.6516 45.7327 27.6548 45.7327 27.6581C45.7327 27.6613 45.7327 27.6646 45.7327 27.6678C45.7327 27.671 45.7327 27.6742 45.7327 27.6774C45.7327 27.6806 45.7327 27.6838 45.7327 27.687C45.7327 27.6901 45.7327 27.6933 45.7327 27.6965C45.7327 27.6996 45.7327 27.7028 45.7327 27.7059C45.7327 27.709 45.7327 27.7122 45.7327 27.7153C45.7327 27.7184 45.7327 27.7215 45.7327 27.7246C45.7327 27.7277 45.7327 27.7308 45.7327 27.7338C45.7327 27.7369 45.7327 27.74 45.7327 27.743C45.7327 27.7461 45.7327 27.7491 45.7327 27.7521C45.7327 27.7552 45.7327 27.7582 45.7327 27.7612C45.7327 27.7642 45.7327 27.7672 45.7327 27.7702C45.7327 27.7732 45.7327 27.7761 45.7327 27.7791C45.7327 27.7821 45.7327 27.785 45.7327 27.788C45.7327 27.7909 45.7327 27.7939 45.7327 27.7968C45.7327 27.7997 45.7327 27.8026 45.7327 27.8055C45.7327 27.8085 45.7327 27.8114 45.7327 27.8142C45.7327 27.8171 45.7327 27.82 45.7327 27.8229C45.7327 27.8257 45.7327 27.8286 45.7327 27.8314C45.7327 27.8343 45.7327 27.8371 45.7327 27.84C45.7327 27.8428 45.7327 27.8456 45.7327 27.8484C45.7327 27.8512 45.7327 27.854 45.7327 27.8568C45.7327 27.8596 45.7327 27.8624 45.7327 27.8651C45.7327 27.8679 45.7327 27.8707 45.7327 27.8734C45.7327 27.8762 45.7327 27.8789 45.7327 27.8816C45.7327 27.8844 45.7327 27.8871 45.7327 27.8898C45.7327 27.8925 45.7327 27.8952 45.7327 27.8979C45.7327 27.9006 45.7327 27.9033 45.7327 27.9059C45.7327 27.9086 45.7327 27.9113 45.7327 27.9139C45.7327 27.9166 45.7327 27.9192 45.7327 27.9218C45.7327 27.9245 45.7327 27.9271 45.7327 27.9297C45.7327 27.9323 45.7327 27.9349 45.7327 27.9375C45.7327 27.9401 45.7327 27.9427 45.7327 27.9453C45.7327 27.9479 45.7327 27.9504 45.7327 27.953C45.7327 27.9556 45.7327 27.9581 45.7327 27.9607C45.7327 27.9632 45.7327 27.9657 45.7327 27.9683C45.7327 27.9708 45.7327 27.9733 45.7327 27.9758C45.7327 27.9783 45.7327 27.9808 45.7327 27.9833C45.7327 27.9858 45.7327 27.9882 45.7327 27.9907C45.7327 27.9932 45.7327 27.9956 45.7327 27.9981C45.7327 28.0005 45.7327 28.003 45.7327 28.0054C45.7327 28.0079 45.7327 28.0103 45.7327 28.0127C45.7327 28.0151 45.7327 28.0175 45.7327 28.0199C45.7327 28.0223 45.7327 28.0247 45.7327 28.0271C45.7327 28.0295 45.7327 28.0318 45.7327 28.0342C45.7327 28.0365 45.7327 28.0389 45.7327 28.0412C45.7327 28.0436 45.7327 28.0459 45.7327 28.0483C45.7327 28.0506 45.7327 28.0529 45.7327 28.0552C45.7327 28.0575 45.7327 28.0598 45.7327 28.0621C45.7327 28.0644 45.7327 28.0667 45.7327 28.069C45.7327 28.0713 45.7327 28.0735 45.7327 28.0758C45.7327 28.078 45.7327 28.0803 45.7327 28.0825C45.7327 28.0848 45.7327 28.087 45.7327 28.0892C45.7327 28.0915 45.7327 28.0937 45.7327 28.0959C45.7327 28.0981 45.7327 28.1003 45.7327 28.1025C45.7327 28.1047 45.7327 28.1069 45.7327 28.109C45.7327 28.1112 45.7327 28.1134 45.7327 28.1156C45.7327 28.1177 45.7327 28.1199 45.7327 28.122C45.7327 28.1242 45.7327 28.1263 45.7327 28.1284C45.7327 28.1305 45.7327 28.1327 45.7327 28.1348C45.7327 28.1369 45.7327 28.139 45.7327 28.1411C45.7327 28.1432 45.7327 28.1453 45.7327 28.1474C45.7327 28.1494 45.7327 28.1515 45.7327 28.1536C45.7327 28.1556 45.7327 28.1577 45.7327 28.1597C45.7327 28.1618 45.7327 28.1638 45.7327 28.1659C45.7327 28.1679 45.7327 28.1699 45.7327 28.1719C45.7327 28.174 45.7327 28.176 45.7327 28.178C45.7327 28.18 45.7327 28.182 45.7327 28.1839C45.7327 28.1859 45.7327 28.1879 45.7327 28.1899C45.7327 28.1919 45.7327 28.1938 45.7327 28.1958C45.7327 28.1977 45.7327 28.1997 45.7327 28.2016C45.7327 28.2036 45.7327 28.2055 45.7327 28.2074C45.7327 28.2094 45.7327 28.2113 45.7327 28.2132C45.7327 28.2151 45.7327 28.217 45.7327 28.2189C45.7327 28.2208 45.7327 28.2227 45.7327 28.2246C45.7327 28.2265 45.7327 28.2283 45.7327 28.2302C45.7327 28.2321 45.7327 28.2339 45.7327 28.2358C45.7327 28.2376 45.7327 28.2395 45.7327 28.2413C45.7327 28.2432 45.7327 28.245 45.7327 28.2468C45.7327 28.2486 45.7327 28.2505 45.7327 28.2523C45.7327 28.2541 45.7327 28.2559 45.7327 28.2577C45.7327 28.2595 45.7327 28.2613 45.7327 28.2631C45.7327 28.2648 45.7327 28.2666 45.7327 28.2684C45.7327 28.2702 45.7327 28.2719 45.7327 28.2737C45.7327 28.2754 45.7327 28.2772 45.7327 28.2789C45.7327 28.2807 45.7327 28.2824 45.7327 28.2841C45.7327 28.2859 45.7327 28.2876 45.7327 28.2893C45.7327 28.291 45.7327 28.2927 45.7327 28.2944C45.7327 28.2961 45.7327 28.2978 45.7327 28.2995C45.7327 28.3012 45.7327 28.3029 45.7327 28.3045C45.7327 28.3062 45.7327 28.3079 45.7327 28.3095C45.7327 28.3112 45.7327 28.3129 45.7327 28.3145C45.7327 28.3162 45.7327 28.3178 45.7327 28.3194C45.7327 28.3211 45.7327 28.3227 45.7327 28.3243C45.7327 28.3259 45.7327 28.3276 45.7327 28.3292C45.7327 28.3308 45.7327 28.3324 45.7327 28.334C45.7327 28.3356 45.7327 28.3372 45.7327 28.3388C45.7327 28.3403 45.7327 28.3419 45.7327 28.3435C45.7327 28.3451 45.7327 28.3466 45.7327 28.3482C45.7327 28.3498 45.7327 28.3513 45.7327 28.3529C45.7327 28.3544 45.7327 28.356 45.7327 28.3575C45.7327 28.359 45.7327 28.3606 45.7327 28.3621C45.7327 28.3636 45.7327 28.3651 45.7327 28.3666C45.7327 28.3681 45.7327 28.3697 45.7327 28.3712C45.7327 28.3727 45.7327 28.3741 45.7327 28.3756C45.7327 28.3771 45.7327 28.3786 45.7327 28.3801C45.7327 28.3816 45.7327 28.383 45.7327 28.3845C45.7327 28.386 45.7327 28.3874 45.7327 28.3889C45.7327 28.3903 45.7327 28.3918 45.7327 28.3932C45.7327 28.3947 45.7327 28.3961 45.7327 28.3975C45.7327 28.399 45.7327 28.4004 45.7327 28.4018C45.7327 28.4032 45.7327 28.4046 45.7327 28.406C45.7327 28.4075 45.7327 28.4089 45.7327 28.4103C45.7327 28.4117 45.7327 28.413 45.7327 28.4144C45.7327 28.4158 45.7327 28.4172 45.7327 28.4186C45.7327 28.42 45.7327 28.4213 45.7327 28.4227C45.7327 28.4241 45.7327 28.4254 45.7327 28.4268C45.7327 28.4281 45.7327 28.4295 45.7327 28.4308C45.7327 28.4322 45.7327 28.4335 45.7327 28.4348C45.7327 28.4362 45.7327 28.4375 45.7327 28.4388C45.7327 28.4401 45.7327 28.4415 45.7327 28.4428C45.7327 28.4441 45.7327 28.4454 45.7327 28.4467C45.7327 28.448 45.7327 28.4493 45.7327 28.4506C45.7327 28.4519 45.7327 28.4532 45.7327 28.4545C45.7327 28.4557 45.7327 28.457 45.7327 28.4583C45.7327 28.4596 45.7327 28.4608 45.7327 28.4621C45.7327 28.4634 45.7327 28.4646 45.7327 28.4659C45.7327 28.4671 45.7327 28.4684 45.7327 28.4696C45.7327 28.4709 45.7327 28.4721 45.7327 28.4733C45.7327 28.4746 45.7327 28.4758 45.7327 28.477C45.7327 28.4782 45.7327 28.4795 45.7327 28.4807C45.7327 28.4819 45.7327 28.4831 45.7327 28.4843C45.7327 28.4855 45.7327 28.4867 45.7327 28.4879C45.7327 28.4891 45.7327 28.4903 45.7327 28.4915C45.7327 28.4927 45.7327 28.4939 45.7327 28.4951C45.7327 28.4962 45.7327 28.4974 45.7327 28.4986C45.7327 28.4997 45.7327 28.5009 45.7327 28.5021C45.7327 28.5032 45.7327 28.5044 45.7327 28.5055C45.7327 28.5067 45.7327 28.5078 45.7327 28.509C45.7327 28.5101 45.7327 28.5113 45.7327 28.5124C45.7327 28.5136 45.7327 28.5147 45.7327 28.5158C45.7327 28.5169 45.7327 28.5181 45.7327 28.5192C45.7327 28.5203 45.7327 28.5214 45.7327 28.5225C45.7327 28.5236 45.7327 28.5247 45.7327 28.5259C45.7327 28.527 45.7327 28.5281 45.7327 28.5292C45.7327 28.5302 45.7327 28.5313 45.7327 28.5324C45.7327 28.5335 45.7327 28.5346 45.7327 28.5357C45.7327 28.5368 45.7327 28.5378 45.7327 28.5389C45.7327 28.54 45.7327 28.541 45.7327 28.5421C45.7327 28.5432 45.7327 28.5442 45.7327 28.5453C45.7327 28.5463 45.7327 28.5474 45.7327 28.5485C45.7327 28.5495 45.7327 28.5505 45.7327 28.5516C45.7327 28.5526 45.7327 28.5537 45.7327 28.5547C45.7327 28.5557 45.7327 28.5568 45.7327 28.5578C45.7327 28.5588 45.7327 28.5599 45.7327 28.5609C45.7327 28.5619 45.7327 28.5629 45.7327 28.5639C45.7327 28.5649 45.7327 28.5659 45.7327 28.567C45.7327 28.568 45.7327 28.569 45.7327 28.57C45.7327 28.571 45.7327 28.572 45.7327 28.573C45.7327 28.574 45.7327 28.5749 45.7327 28.5759C45.7327 28.5769 45.7327 28.5779 45.7327 28.5789C45.7327 28.5799 45.7327 28.5808 45.7327 28.5818C45.7327 28.5828 45.7327 28.5838 45.7327 28.5847C45.7327 28.5857 45.7327 28.5867 45.7327 28.5876C45.7327 28.5886 45.7327 28.5895 45.7327 28.5905C45.7327 28.5915 45.7327 28.5924 45.7327 28.5934C45.7327 28.5943 45.7327 28.5953 45.7327 28.5962C45.7327 28.5971 45.7327 28.5981 45.7327 28.599C45.7327 28.6 45.7327 28.6009 45.7327 28.6018C45.7327 28.6028 45.7327 28.6037 45.7327 28.6046C45.7327 28.6055 45.7327 28.6065 45.7327 28.6074C45.7327 28.6083 45.7327 28.6092 45.7327 28.6101C45.7327 28.6111 45.7327 28.612 45.7327 28.6129C45.7327 28.6138 45.7327 28.6147 45.7327 28.6156C45.7327 28.6165 45.7327 28.6174 45.7327 28.6183C45.7327 28.6192 45.7327 28.6201 45.7327 28.621C45.7327 28.6219 45.7327 28.6228 45.7327 28.6237C45.7327 28.6246 45.7327 28.6255 45.7327 28.6263C45.7327 28.6272 45.7327 28.6281 45.7327 28.629C45.7327 28.6299 45.7327 28.6308 45.7327 28.6316C45.7327 28.6325 45.7327 28.6334 45.7327 28.6343C45.7327 28.6351 45.7327 28.636 45.7327 28.6369C45.7327 28.6377 45.7327 28.6386 45.7327 28.6395C45.7327 28.6403 45.7327 28.6412 45.7327 28.642C45.7327 28.6429 45.7327 28.6438 45.7327 28.6446C45.7327 28.6455 45.7327 28.6463 45.7327 28.6472C45.7327 28.648 45.7327 28.6489 45.7327 28.6497C45.7327 28.6506 45.7327 28.6514 45.7327 28.6522C45.7327 28.6531 45.7327 28.6539 45.7327 28.6548C45.7327 28.6556 45.7327 28.6564 45.7327 28.6573C45.7327 28.6581 45.7327 28.6589 45.7327 28.6598C45.7327 28.6606 45.7327 28.6614 45.7327 28.6623C45.7327 28.6631 45.7327 28.6639 45.7327 28.6647C45.7327 28.6656 45.7327 28.6664 45.7327 28.6672C45.7327 28.668 45.7327 28.6688 45.7327 28.6697C45.7327 28.6705 45.7327 28.6713 45.7327 28.6721C45.7327 28.6729 45.7327 28.6737 45.7327 28.6745C45.7327 28.6754 45.7327 28.6762 45.7327 28.677C45.7327 28.6778 45.7327 28.6786 45.7327 28.6794C45.7327 28.6802 45.7327 28.681 45.7327 28.6818C45.7327 28.6826 45.7327 28.6834 45.7327 28.6842C45.7327 28.685 45.7327 28.6858 45.7327 28.6866C45.7327 28.6874 45.7327 28.6882 45.7327 28.689C45.7327 28.6898 45.7327 28.6906 45.7327 28.6914C45.7327 28.6922 45.7327 28.693 45.7327 28.6937C45.7327 28.6945 45.7327 28.6953 45.7327 28.6961C45.7327 28.6969 45.7327 28.6977 45.7327 28.6985C45.7327 28.6993 45.7327 28.7 45.7327 28.7008C45.7327 28.7016 45.7327 28.7024 45.7327 28.7032C45.7327 28.704 45.7327 28.7047 45.7327 28.7055C45.7327 28.7063 45.7327 28.7071 45.7327 28.7079C45.7327 28.7086 45.7327 28.7094 45.7327 28.7102C45.7327 28.711 45.7327 28.7117 45.7327 28.7125C45.7327 28.7133 45.7327 28.7141 45.7327 28.7148C45.7327 28.7156 45.7327 28.7164 45.7327 28.7172C45.7327 28.7179 45.7327 28.7187 45.7327 28.7195C45.7327 28.7203 45.7327 28.721 45.7327 28.7218C45.7327 28.7226 45.7327 28.7233 45.7327 28.7241C45.7327 28.7249 45.7327 28.7256 45.7327 28.7264C45.7327 28.7272 45.7327 28.7279 45.7327 28.7287C45.7327 28.7295 45.7327 28.7302 45.7327 28.731C45.7327 28.7318 45.7327 28.7325 45.7327 28.7333C45.7327 28.7341 45.7327 28.7348 45.7327 28.7356C45.7327 28.7364 45.7327 28.7371 45.7327 28.7379C45.7327 28.7387 45.7327 28.7394 45.7327 28.7402C45.7327 28.741 45.7327 28.7417 45.7327 28.7425C45.7327 28.7433 45.7327 28.744 45.7327 28.7448C45.7327 28.7455 45.7327 28.7463 45.7327 28.7471C45.7327 28.7478 45.7327 28.7486 45.7327 28.7494C45.7327 28.7501 45.7327 28.7509 45.7327 28.7517C45.7327 28.7524 45.7327 28.7532 45.7327 28.754C45.7327 28.7547 45.7327 28.7555 45.7327 28.7562C45.7327 28.757 45.7327 28.7578 45.7327 28.7585C45.7327 28.7593 45.7327 28.7601 45.7327 28.7608C45.7327 28.7616 45.7327 28.7624 45.7327 28.7631C45.7327 28.7639 45.7327 28.7647 45.7327 28.7654C45.7327 28.7662 45.7327 28.767 45.7327 28.7677C45.7327 28.7685 45.7327 28.7693 45.7327 28.77C45.7327 28.7708 45.7327 28.7716 45.7327 28.7723C45.7327 28.7731 45.7327 28.7739 45.7327 28.7746C45.7327 28.7754 45.7327 28.7762 45.7327 28.777C45.7327 28.7777 45.7327 28.7785 45.7327 28.7793C45.7327 28.78 45.7327 28.7808 45.7327 28.7816C45.7327 28.7824 45.7327 28.7831 45.7327 28.7839C45.7327 28.7847 45.7327 28.7855 45.7327 28.7862C45.7327 28.787 45.7327 28.7878 45.7327 28.7886C45.7327 28.7893 45.7327 28.7901 45.7327 28.7909C45.7327 28.7917 45.7327 28.7925 45.7327 28.7932C45.7327 28.794 45.7327 28.7948 45.7327 28.7956C45.7327 28.7964 45.7327 28.7972 45.7327 28.7979C45.7327 28.7987 45.7327 28.7995 45.7327 28.8003C45.7327 28.8011 45.7327 28.8019 45.7327 28.8027C45.7327 28.8035 45.7327 28.8043 45.7327 28.805C45.7327 28.8058 45.7327 28.8066 45.7327 28.8074C45.7327 28.8082 45.7327 28.809 45.7327 28.8098C45.7327 28.8106 45.7327 28.8114 45.7327 28.8122C45.7327 28.813 45.7327 28.8138 45.7327 28.8146C45.7327 28.8154 45.7327 28.8162 45.7327 28.817C45.7327 28.8178 45.7327 28.8186 45.7327 28.8194C45.7327 28.8202 45.7327 28.821 45.7327 28.8219C45.7327 28.8227 45.7327 28.8235 45.7327 28.8243C45.7327 28.8251 45.7327 28.8259 45.7327 28.8267C45.7327 28.8276 45.7327 28.8284 45.7327 28.8292C45.7327 28.83 45.7327 28.8308 45.7327 28.8317C45.7327 28.8325 45.7327 28.8333 45.7327 28.8341C45.7327 28.835 45.7327 28.8358 45.7327 28.8366C45.7327 28.8374 45.7327 28.8383 45.7327 28.8391C45.7327 28.8399 45.7327 28.8408 45.7327 28.8416C45.7327 28.8425 45.7327 28.8433 45.7327 28.8441C45.7327 28.845 45.7327 28.8458 45.7327 28.8467C45.7327 28.8475 45.7327 28.8484 45.7327 28.8492C45.7327 28.8501 45.7327 28.8509 45.7327 28.8518C45.7327 28.8526 45.7327 28.8535 45.7327 28.8543C45.7327 28.8552 45.7327 28.856 45.7327 28.8569C45.7327 28.8578 45.7327 28.8586 45.7327 28.8595C45.7327 28.8604 45.7327 28.8612 45.7327 28.8621C45.7327 28.863 45.7327 28.8638 45.7327 28.8647C45.7327 28.8656 45.7327 28.8665 45.7327 28.8673C45.7327 28.8682 45.7327 28.8691 45.7327 28.87C45.7327 28.8709 45.7327 28.8718 45.7327 28.8726C45.7327 28.8735 45.7327 28.8744 45.7327 28.8753C45.7327 28.8762 45.7327 28.8771 45.7327 28.878C45.7327 28.8789 45.7327 28.8798 45.7327 28.8807C45.7327 28.8816 45.7327 28.8825 45.7327 28.8834C45.7327 28.8843 45.7327 28.8852 45.7327 28.8862C45.7327 28.8871 45.7327 28.888 45.7327 28.8889C45.7327 28.8898 45.7327 28.8908 45.7327 28.8917C45.7327 28.8926 45.7327 28.8935 45.7327 28.8945C45.7327 28.8954 45.7327 28.8963 45.7327 28.8973C45.7327 28.8982 45.7327 28.8991 45.7327 28.9001C45.7327 28.901 45.7327 28.902 45.7327 28.9029C45.7327 28.9039 45.7327 28.9048 45.7327 28.9058C45.7327 28.9067 45.7327 28.9077 45.7327 28.9086C45.7327 28.9096 45.7327 28.9106 45.7327 28.9115C45.7327 28.9125 45.7327 28.9135 45.7327 28.9144C45.7327 28.9154 45.7327 28.9164 45.7327 28.9174C45.7327 28.9183 45.7327 28.9193 45.7327 28.9203C45.7327 28.9213 45.7327 28.9223 45.7327 28.9233C45.7327 28.9243 45.7327 28.9253 45.7327 28.9263C45.7327 28.9273 45.7327 28.9283 45.7327 28.9293C45.7327 28.9303 45.7327 28.9313 45.7327 28.9323C45.7327 28.9333 45.7327 28.9343 45.7327 28.9353C45.7327 28.9364 45.7327 28.9374 45.7327 28.9384C45.7327 28.9394 45.7327 28.9405 45.7327 28.9415C45.7327 28.9425 45.7327 28.9436 45.7327 28.9446C45.7327 28.9456 45.7327 28.9467 45.7327 28.9477C45.7327 28.9488 45.7327 28.9498 45.7327 28.9509C45.7327 28.9519 45.7327 28.953 45.7327 28.9541C45.7327 28.9551 45.7327 28.9562 45.7327 28.9573C45.7327 28.9583 45.7327 28.9594 45.7327 28.9605C45.7327 28.9616 45.7327 28.9626 45.7327 28.9637C45.7327 28.9648 45.7327 28.9659 45.7327 28.967C45.7327 28.9681 45.7327 28.9692 45.7327 28.9703C45.7327 28.9714 45.7327 28.9725 45.7327 28.9736C45.7327 28.9747 45.7327 28.9758 45.7327 28.9769C45.7327 28.9781 45.7327 28.9792 45.7327 28.9803C45.7327 28.9814 45.7327 28.9826 45.7327 28.9837C45.7327 28.9848 45.7327 28.986 45.7327 28.9871C45.7327 28.9882 45.7327 28.9894 45.7327 28.9905C45.7327 28.9917 45.7327 28.9928 45.7327 28.994C45.7327 28.9952 45.7327 28.9963 45.7327 28.9975C45.7327 28.9987 45.7327 28.9998 45.7327 29.001C45.7327 29.0022 45.7327 29.0034 45.7327 29.0046C45.7327 29.0057 45.7327 29.0069 45.7327 29.0081C45.7327 29.0093 45.7327 29.0105 45.7327 29.0117C45.7327 29.0129 45.7327 29.0141 45.7327 29.0153C45.7327 29.0166 45.7327 29.0178 45.7327 29.019C45.7327 29.0202 45.7327 29.0214 45.7327 29.0227C45.7327 29.0239 45.7327 29.0251 45.7327 29.0264C45.7327 29.0276 45.7327 29.0289 45.7327 29.0301C45.7327 29.0314 45.7327 29.0326 45.7327 29.0339C45.7327 29.0352 45.7327 29.0364 45.7327 29.0377C45.7327 29.039 45.7327 29.0402 45.7327 29.0415C45.7327 29.0428 45.7327 29.0441 45.7327 29.0454C45.7327 29.0467 45.7327 29.048 45.7327 29.0493C45.7327 29.0506 45.7327 29.0519 45.7327 29.0532C45.7327 29.0545 45.7327 29.0558 45.7327 29.0571C45.7327 29.0584 45.7327 29.0598 45.7327 29.0611C45.7327 29.0624 45.7327 29.0638 45.7327 29.0651C45.7327 29.0664 45.7327 29.0678 45.7327 29.0691C45.7327 29.0705 45.7327 29.0718 45.7327 29.0732C45.7327 29.0746 45.7327 29.0759 45.7327 29.0773C45.7327 29.0787 45.7327 29.0801 45.7327 29.0814C45.7327 29.0828 45.7327 29.0842 45.7327 29.0856C45.7327 29.087 45.7327 29.0884 45.7327 29.0898C45.7327 29.0912 45.7327 29.0926 45.7327 29.094C45.7327 29.0955 45.7327 29.0969 45.7327 29.0983C45.7327 29.0997 45.7327 29.1012 45.7327 29.1026C45.7327 29.104 45.7327 29.1055 45.7327 29.1069C45.7327 29.1084 45.7327 29.1098 45.7327 29.1113C45.7327 29.1128 45.7327 29.1142 45.7327 29.1157C45.7327 29.1172 45.7327 29.1187 45.7327 29.1201C45.7327 29.1216 45.7327 29.1231 45.7327 29.1246C45.7327 29.1261 45.7327 29.1276 45.7327 29.1291C45.7327 29.1306 45.7327 29.1321 45.7327 29.1337C45.7327 29.1352 45.7327 29.1367 45.7327 29.1382C45.7327 29.1398 45.7327 29.1413 45.7327 29.1429C45.7327 29.1444 45.7327 29.146 45.7327 29.1475C45.7327 29.1491 45.7327 29.1506 45.7327 29.1522C45.7327 29.1538 45.7327 29.1553 45.7327 29.1569C45.7327 29.1585 45.7327 29.1601 45.7327 29.1617C45.7327 29.1633 45.7327 29.1649 45.7327 29.1665C45.7327 29.1681 45.7327 29.1697 45.7327 29.1713C45.7327 29.1729 45.7327 29.1746 45.7327 29.1762C45.7327 29.1778 45.7327 29.1795 45.7327 29.1811C45.7327 29.1828 45.7327 29.1844 45.7327 29.1861C45.7327 29.1877 45.7327 29.1894 45.7327 29.1911C45.7327 29.1927 45.7327 29.1944 45.7327 29.1961C45.7327 29.1978 45.7327 29.1995 45.7327 29.2012C45.7327 29.2029 45.7327 29.2046 45.7327 29.2063C45.7327 29.208 45.7327 29.2097 45.7327 29.2114C45.7327 29.2132 45.7327 29.2149 45.7327 29.2166C45.7327 29.2184 45.7327 29.2201 45.7327 29.2219C45.7327 29.2236 45.7327 29.2254 45.7327 29.2271C45.7327 29.2289 45.7327 29.2307 45.7327 29.2325C45.7327 29.2342 45.7327 29.236 45.7327 29.2378C45.7327 29.2396 45.7327 29.2414 45.7327 29.2432C45.7327 29.245 45.7327 29.2468 45.7327 29.2487C45.7327 29.2505 45.7327 29.2523 45.7327 29.2541C45.7327 29.256 45.7327 29.2578 45.7327 29.2597C45.7327 29.2615 45.7327 29.2634 45.7327 29.2652C45.7327 29.2671 45.7327 29.269 45.7327 29.2708C45.7327 29.2727 45.7327 29.2746 45.7327 29.2765C45.7327 29.2784 45.7327 29.2803 45.7327 29.2822C45.7327 29.2841 45.7327 29.286 45.7327 29.2879C45.7327 29.2899 45.7327 29.2918 45.7327 29.2937C45.7327 29.2957 45.7327 29.2976 45.7327 29.2996C45.7327 29.3015 45.7327 29.3035 45.7327 29.3054C45.7327 29.3074 45.7327 29.3094 45.7327 29.3114C45.7327 29.3134 45.7327 29.3153 45.7327 29.3173C45.7327 29.3193 45.7327 29.3213 45.7327 29.3234C45.7327 29.3254 45.7327 29.3274 45.7327 29.3294C45.7327 29.3314 45.7327 29.3335 45.7327 29.3355C45.7327 29.3376 45.7327 29.3396 45.7327 29.3417C45.7327 29.3437 45.7327 29.3458 45.7327 29.3479C45.7327 29.35 45.7327 29.352 45.7327 29.3541C45.7327 29.3562 45.7327 29.3583 45.7327 29.3604C45.7327 29.3625 45.7327 29.3647 45.7327 29.3668C45.7327 29.3689 45.7327 29.371 45.7327 29.3732C45.7327 29.3753 45.7327 29.3775 45.7327 29.3796C45.7327 29.3818 45.7327 29.3839 45.7327 29.3861C45.7327 29.3883 45.7327 29.3905 45.7327 29.3926C45.7327 29.3948 45.7327 29.397 45.7327 29.3992C45.7327 29.4014 45.7327 29.4036 45.7327 29.4059C45.7327 29.4081 45.7327 29.4103 45.7327 29.4126C45.7327 29.4148 45.7327 29.417 45.7327 29.4193C45.7327 29.4215 45.7327 29.4238 45.7327 29.4261C45.7327 29.4284 45.7327 29.4306 45.7327 29.4329C45.7327 29.4352 45.7327 29.4375 45.7327 29.4398C45.7327 29.4421 45.7327 29.4444 45.7327 29.4468C45.7327 29.4491 45.7327 29.4514 45.7327 29.4537C45.7327 29.4561 45.7327 29.4584 45.7327 29.4608C45.7327 29.4631 45.7327 29.4655 45.7327 29.4679C45.7327 29.4703 45.7327 29.4726 45.7327 29.475C45.7327 29.4774 45.7327 29.4798 45.7327 29.4822C45.7327 29.4846 45.7327 29.4871 45.7327 29.4895C45.7327 29.4919 45.7327 29.4944 45.7327 29.4968C45.7327 29.4992 45.7327 29.5017 45.7327 29.5042C45.7327 29.5066 45.7327 29.5091 45.7327 29.5116C45.7327 29.5141 45.7327 29.5166 45.7327 29.5191C45.7327 29.5216 45.7327 29.5241 45.7327 29.5266C45.7327 29.5291 45.7327 29.5316 45.7327 29.5342C45.7327 29.5367 45.7327 29.5392 45.7327 29.5418C45.7327 29.5443 45.7327 29.5469 45.7327 29.5495C45.7327 29.5521 45.7327 29.5546 45.7327 29.5572C45.7327 29.5598 45.7327 29.5624 45.7327 29.565C45.7327 29.5676 45.7327 29.5703 45.7327 29.5729C45.7327 29.5755 45.7327 29.5781 45.7327 29.5808C45.7327 29.5834 45.7327 29.5861 45.7327 29.5888C45.7327 29.5914 45.7327 29.5941 45.7327 29.5968C45.7327 29.5995 45.7327 29.6022 45.7327 29.6049C45.7327 29.6076 45.7327 29.6103 45.7327 29.613C45.7327 29.6157 45.7327 29.6185 45.7327 29.6212C45.7327 29.624 45.7327 29.6267 45.7327 29.6295C45.7327 29.6322 45.7327 29.635 45.7327 29.6378C45.7327 29.6406 45.7327 29.6434 45.7327 29.6462C45.7327 29.649 45.7327 29.6518 45.7327 29.6546C45.7327 29.6574 45.7327 29.6603 45.7327 29.6631C45.7327 29.6659 45.7327 29.6688 45.7327 29.6716C45.7327 29.6745 45.7327 29.6774 45.7327 29.6803C45.7327 29.6831 45.7327 29.686 45.7327 29.6889C45.7327 29.6918 45.7327 29.6947 45.7327 29.6977C45.7327 29.7006 45.7327 29.7035 45.7327 29.7065C45.7327 29.7094 45.7327 29.7123 45.7327 29.7153C45.7327 29.7183 45.7327 29.7212 45.7327 29.7242C45.7327 29.7272 45.7327 29.7302 45.7327 29.7332C45.7327 29.7362 45.7327 29.7392 45.7327 29.7422C45.7327 29.7453 45.7327 29.7483 45.7327 29.7513C45.7327 29.7544 45.7327 29.7574 45.7327 29.7605C45.7327 29.7636 45.7327 29.7666 45.7327 29.7697C45.7327 29.7728 45.7327 29.7759 45.7327 29.779C45.7327 29.7821 45.7327 29.7852 45.7327 29.7884C45.7327 29.7915 45.7327 29.7946 45.7327 29.7978C45.7327 29.8009 45.7327 29.8041 45.7327 29.8073C45.7327 29.8104 45.7327 29.8136 45.7327 29.8168C45.7327 29.82 45.7327 29.8232 45.7327 29.8264C45.7327 29.8296 45.7327 29.8329 45.7327 29.8361C45.7327 29.8393 45.7327 29.8426 45.7327 29.8458C45.7327 29.8491 45.7327 29.8524 45.7327 29.8556C45.7327 29.8589 45.7327 29.8622 45.7327 29.8655C45.7327 29.8688 45.7327 29.8721 45.7327 29.8754C45.7327 29.8788 45.7327 29.8821 45.7327 29.8854C45.7327 29.8888 45.7327 29.8921 45.7327 29.8955C45.7327 29.8989 45.7327 29.9022 45.7327 29.9056C45.7327 29.909 45.7327 29.9124 45.7327 29.9158C45.7327 29.9192 45.7327 29.9227 45.7327 29.9261C45.7327 29.9295 45.7327 29.933 45.7327 29.9364C45.7327 29.9399 45.7327 29.9434 45.7327 29.9468C45.7327 29.9503 45.7327 29.9538 45.7327 29.9573C45.7327 29.9608 45.7327 29.9643 45.7327 29.9679C45.7327 29.9714 45.7327 29.9749 45.7327 29.9785C45.7327 29.982 45.7327 29.9856 45.7327 29.9891C45.7327 29.9927 45.7327 29.9963 45.7327 29.9999C45.7327 30.0035 45.7327 30.0071 45.7327 30.0107C45.7327 30.0143 45.7327 30.0179 45.7327 30.0216C45.7327 30.0252 45.7327 30.0289 45.7327 30.0325C45.7327 30.0362 45.7327 30.0399 45.7327 30.0436C45.7327 30.0472 45.7327 30.0509 45.7327 30.0547C45.7327 30.0584 45.7327 30.0621 45.7327 30.0658C45.7327 30.0696 45.7327 30.0733 45.7327 30.0771C45.7327 30.0808 45.7327 30.0846 45.7327 30.0884C45.7327 30.0922 45.7327 30.0959 45.7327 30.0998C45.7327 30.1036 45.7327 30.1074 45.7327 30.1112C45.7327 30.115 45.7327 30.1189 45.7327 30.1227C45.7327 30.1266 45.7327 30.1305 45.7327 30.1343C45.7327 30.1382 45.7327 30.1421 45.7327 30.146C45.7327 30.1499 45.7327 30.1538 45.7327 30.1577C45.7327 30.1617 45.7327 30.1656 45.7327 30.1696C45.7327 30.1735 45.7327 30.1775 45.7327 30.1815C45.7327 30.1854 45.7327 30.1894 45.7327 30.1934C45.7327 30.1974 45.7327 30.2014 45.7327 30.2055C45.7327 30.2095 45.7327 30.2135 45.7327 30.2176H50.2327C50.2327 30.2135 50.2327 30.2095 50.2327 30.2055C50.2327 30.2014 50.2327 30.1974 50.2327 30.1934C50.2327 30.1894 50.2327 30.1854 50.2327 30.1815C50.2327 30.1775 50.2327 30.1735 50.2327 30.1696C50.2327 30.1656 50.2327 30.1617 50.2327 30.1577C50.2327 30.1538 50.2327 30.1499 50.2327 30.146C50.2327 30.1421 50.2327 30.1382 50.2327 30.1343C50.2327 30.1305 50.2327 30.1266 50.2327 30.1227C50.2327 30.1189 50.2327 30.115 50.2327 30.1112C50.2327 30.1074 50.2327 30.1036 50.2327 30.0998C50.2327 30.0959 50.2327 30.0922 50.2327 30.0884C50.2327 30.0846 50.2327 30.0808 50.2327 30.0771C50.2327 30.0733 50.2327 30.0696 50.2327 30.0658C50.2327 30.0621 50.2327 30.0584 50.2327 30.0547C50.2327 30.0509 50.2327 30.0472 50.2327 30.0436C50.2327 30.0399 50.2327 30.0362 50.2327 30.0325C50.2327 30.0289 50.2327 30.0252 50.2327 30.0216C50.2327 30.0179 50.2327 30.0143 50.2327 30.0107C50.2327 30.0071 50.2327 30.0035 50.2327 29.9999C50.2327 29.9963 50.2327 29.9927 50.2327 29.9891C50.2327 29.9856 50.2327 29.982 50.2327 29.9785C50.2327 29.9749 50.2327 29.9714 50.2327 29.9679C50.2327 29.9643 50.2327 29.9608 50.2327 29.9573C50.2327 29.9538 50.2327 29.9503 50.2327 29.9468C50.2327 29.9434 50.2327 29.9399 50.2327 29.9364C50.2327 29.933 50.2327 29.9295 50.2327 29.9261C50.2327 29.9227 50.2327 29.9192 50.2327 29.9158C50.2327 29.9124 50.2327 29.909 50.2327 29.9056C50.2327 29.9022 50.2327 29.8989 50.2327 29.8955C50.2327 29.8921 50.2327 29.8888 50.2327 29.8854C50.2327 29.8821 50.2327 29.8788 50.2327 29.8754C50.2327 29.8721 50.2327 29.8688 50.2327 29.8655C50.2327 29.8622 50.2327 29.8589 50.2327 29.8556C50.2327 29.8524 50.2327 29.8491 50.2327 29.8458C50.2327 29.8426 50.2327 29.8393 50.2327 29.8361C50.2327 29.8329 50.2327 29.8296 50.2327 29.8264C50.2327 29.8232 50.2327 29.82 50.2327 29.8168C50.2327 29.8136 50.2327 29.8104 50.2327 29.8073C50.2327 29.8041 50.2327 29.8009 50.2327 29.7978C50.2327 29.7946 50.2327 29.7915 50.2327 29.7884C50.2327 29.7852 50.2327 29.7821 50.2327 29.779C50.2327 29.7759 50.2327 29.7728 50.2327 29.7697C50.2327 29.7666 50.2327 29.7636 50.2327 29.7605C50.2327 29.7574 50.2327 29.7544 50.2327 29.7513C50.2327 29.7483 50.2327 29.7453 50.2327 29.7422C50.2327 29.7392 50.2327 29.7362 50.2327 29.7332C50.2327 29.7302 50.2327 29.7272 50.2327 29.7242C50.2327 29.7212 50.2327 29.7183 50.2327 29.7153C50.2327 29.7123 50.2327 29.7094 50.2327 29.7065C50.2327 29.7035 50.2327 29.7006 50.2327 29.6977C50.2327 29.6947 50.2327 29.6918 50.2327 29.6889C50.2327 29.686 50.2327 29.6831 50.2327 29.6803C50.2327 29.6774 50.2327 29.6745 50.2327 29.6716C50.2327 29.6688 50.2327 29.6659 50.2327 29.6631C50.2327 29.6603 50.2327 29.6574 50.2327 29.6546C50.2327 29.6518 50.2327 29.649 50.2327 29.6462C50.2327 29.6434 50.2327 29.6406 50.2327 29.6378C50.2327 29.635 50.2327 29.6322 50.2327 29.6295C50.2327 29.6267 50.2327 29.624 50.2327 29.6212C50.2327 29.6185 50.2327 29.6157 50.2327 29.613C50.2327 29.6103 50.2327 29.6076 50.2327 29.6049C50.2327 29.6022 50.2327 29.5995 50.2327 29.5968C50.2327 29.5941 50.2327 29.5914 50.2327 29.5888C50.2327 29.5861 50.2327 29.5834 50.2327 29.5808C50.2327 29.5781 50.2327 29.5755 50.2327 29.5729C50.2327 29.5703 50.2327 29.5676 50.2327 29.565C50.2327 29.5624 50.2327 29.5598 50.2327 29.5572C50.2327 29.5546 50.2327 29.5521 50.2327 29.5495C50.2327 29.5469 50.2327 29.5443 50.2327 29.5418C50.2327 29.5392 50.2327 29.5367 50.2327 29.5342C50.2327 29.5316 50.2327 29.5291 50.2327 29.5266C50.2327 29.5241 50.2327 29.5216 50.2327 29.5191C50.2327 29.5166 50.2327 29.5141 50.2327 29.5116C50.2327 29.5091 50.2327 29.5066 50.2327 29.5042C50.2327 29.5017 50.2327 29.4992 50.2327 29.4968C50.2327 29.4944 50.2327 29.4919 50.2327 29.4895C50.2327 29.4871 50.2327 29.4846 50.2327 29.4822C50.2327 29.4798 50.2327 29.4774 50.2327 29.475C50.2327 29.4726 50.2327 29.4703 50.2327 29.4679C50.2327 29.4655 50.2327 29.4631 50.2327 29.4608C50.2327 29.4584 50.2327 29.4561 50.2327 29.4537C50.2327 29.4514 50.2327 29.4491 50.2327 29.4468C50.2327 29.4444 50.2327 29.4421 50.2327 29.4398C50.2327 29.4375 50.2327 29.4352 50.2327 29.4329C50.2327 29.4306 50.2327 29.4284 50.2327 29.4261C50.2327 29.4238 50.2327 29.4215 50.2327 29.4193C50.2327 29.417 50.2327 29.4148 50.2327 29.4126C50.2327 29.4103 50.2327 29.4081 50.2327 29.4059C50.2327 29.4036 50.2327 29.4014 50.2327 29.3992C50.2327 29.397 50.2327 29.3948 50.2327 29.3926C50.2327 29.3905 50.2327 29.3883 50.2327 29.3861C50.2327 29.3839 50.2327 29.3818 50.2327 29.3796C50.2327 29.3775 50.2327 29.3753 50.2327 29.3732C50.2327 29.371 50.2327 29.3689 50.2327 29.3668C50.2327 29.3647 50.2327 29.3625 50.2327 29.3604C50.2327 29.3583 50.2327 29.3562 50.2327 29.3541C50.2327 29.352 50.2327 29.35 50.2327 29.3479C50.2327 29.3458 50.2327 29.3437 50.2327 29.3417C50.2327 29.3396 50.2327 29.3376 50.2327 29.3355C50.2327 29.3335 50.2327 29.3314 50.2327 29.3294C50.2327 29.3274 50.2327 29.3254 50.2327 29.3234C50.2327 29.3213 50.2327 29.3193 50.2327 29.3173C50.2327 29.3153 50.2327 29.3134 50.2327 29.3114C50.2327 29.3094 50.2327 29.3074 50.2327 29.3054C50.2327 29.3035 50.2327 29.3015 50.2327 29.2996C50.2327 29.2976 50.2327 29.2957 50.2327 29.2937C50.2327 29.2918 50.2327 29.2899 50.2327 29.2879C50.2327 29.286 50.2327 29.2841 50.2327 29.2822C50.2327 29.2803 50.2327 29.2784 50.2327 29.2765C50.2327 29.2746 50.2327 29.2727 50.2327 29.2708C50.2327 29.269 50.2327 29.2671 50.2327 29.2652C50.2327 29.2634 50.2327 29.2615 50.2327 29.2597C50.2327 29.2578 50.2327 29.256 50.2327 29.2541C50.2327 29.2523 50.2327 29.2505 50.2327 29.2487C50.2327 29.2468 50.2327 29.245 50.2327 29.2432C50.2327 29.2414 50.2327 29.2396 50.2327 29.2378C50.2327 29.236 50.2327 29.2342 50.2327 29.2325C50.2327 29.2307 50.2327 29.2289 50.2327 29.2271C50.2327 29.2254 50.2327 29.2236 50.2327 29.2219C50.2327 29.2201 50.2327 29.2184 50.2327 29.2166C50.2327 29.2149 50.2327 29.2132 50.2327 29.2114C50.2327 29.2097 50.2327 29.208 50.2327 29.2063C50.2327 29.2046 50.2327 29.2029 50.2327 29.2012C50.2327 29.1995 50.2327 29.1978 50.2327 29.1961C50.2327 29.1944 50.2327 29.1927 50.2327 29.1911C50.2327 29.1894 50.2327 29.1877 50.2327 29.1861C50.2327 29.1844 50.2327 29.1828 50.2327 29.1811C50.2327 29.1795 50.2327 29.1778 50.2327 29.1762C50.2327 29.1746 50.2327 29.1729 50.2327 29.1713C50.2327 29.1697 50.2327 29.1681 50.2327 29.1665C50.2327 29.1649 50.2327 29.1633 50.2327 29.1617C50.2327 29.1601 50.2327 29.1585 50.2327 29.1569C50.2327 29.1553 50.2327 29.1538 50.2327 29.1522C50.2327 29.1506 50.2327 29.1491 50.2327 29.1475C50.2327 29.146 50.2327 29.1444 50.2327 29.1429C50.2327 29.1413 50.2327 29.1398 50.2327 29.1382C50.2327 29.1367 50.2327 29.1352 50.2327 29.1337C50.2327 29.1321 50.2327 29.1306 50.2327 29.1291C50.2327 29.1276 50.2327 29.1261 50.2327 29.1246C50.2327 29.1231 50.2327 29.1216 50.2327 29.1201C50.2327 29.1187 50.2327 29.1172 50.2327 29.1157C50.2327 29.1142 50.2327 29.1128 50.2327 29.1113C50.2327 29.1098 50.2327 29.1084 50.2327 29.1069C50.2327 29.1055 50.2327 29.104 50.2327 29.1026C50.2327 29.1012 50.2327 29.0997 50.2327 29.0983C50.2327 29.0969 50.2327 29.0955 50.2327 29.094C50.2327 29.0926 50.2327 29.0912 50.2327 29.0898C50.2327 29.0884 50.2327 29.087 50.2327 29.0856C50.2327 29.0842 50.2327 29.0828 50.2327 29.0814C50.2327 29.0801 50.2327 29.0787 50.2327 29.0773C50.2327 29.0759 50.2327 29.0746 50.2327 29.0732C50.2327 29.0718 50.2327 29.0705 50.2327 29.0691C50.2327 29.0678 50.2327 29.0664 50.2327 29.0651C50.2327 29.0638 50.2327 29.0624 50.2327 29.0611C50.2327 29.0598 50.2327 29.0584 50.2327 29.0571C50.2327 29.0558 50.2327 29.0545 50.2327 29.0532C50.2327 29.0519 50.2327 29.0506 50.2327 29.0493C50.2327 29.048 50.2327 29.0467 50.2327 29.0454C50.2327 29.0441 50.2327 29.0428 50.2327 29.0415C50.2327 29.0402 50.2327 29.039 50.2327 29.0377C50.2327 29.0364 50.2327 29.0352 50.2327 29.0339C50.2327 29.0326 50.2327 29.0314 50.2327 29.0301C50.2327 29.0289 50.2327 29.0276 50.2327 29.0264C50.2327 29.0251 50.2327 29.0239 50.2327 29.0227C50.2327 29.0214 50.2327 29.0202 50.2327 29.019C50.2327 29.0178 50.2327 29.0166 50.2327 29.0153C50.2327 29.0141 50.2327 29.0129 50.2327 29.0117C50.2327 29.0105 50.2327 29.0093 50.2327 29.0081C50.2327 29.0069 50.2327 29.0057 50.2327 29.0046C50.2327 29.0034 50.2327 29.0022 50.2327 29.001C50.2327 28.9998 50.2327 28.9987 50.2327 28.9975C50.2327 28.9963 50.2327 28.9952 50.2327 28.994C50.2327 28.9928 50.2327 28.9917 50.2327 28.9905C50.2327 28.9894 50.2327 28.9882 50.2327 28.9871C50.2327 28.986 50.2327 28.9848 50.2327 28.9837C50.2327 28.9826 50.2327 28.9814 50.2327 28.9803C50.2327 28.9792 50.2327 28.9781 50.2327 28.9769C50.2327 28.9758 50.2327 28.9747 50.2327 28.9736C50.2327 28.9725 50.2327 28.9714 50.2327 28.9703C50.2327 28.9692 50.2327 28.9681 50.2327 28.967C50.2327 28.9659 50.2327 28.9648 50.2327 28.9637C50.2327 28.9626 50.2327 28.9616 50.2327 28.9605C50.2327 28.9594 50.2327 28.9583 50.2327 28.9573C50.2327 28.9562 50.2327 28.9551 50.2327 28.9541C50.2327 28.953 50.2327 28.9519 50.2327 28.9509C50.2327 28.9498 50.2327 28.9488 50.2327 28.9477C50.2327 28.9467 50.2327 28.9456 50.2327 28.9446C50.2327 28.9436 50.2327 28.9425 50.2327 28.9415C50.2327 28.9405 50.2327 28.9394 50.2327 28.9384C50.2327 28.9374 50.2327 28.9364 50.2327 28.9353C50.2327 28.9343 50.2327 28.9333 50.2327 28.9323C50.2327 28.9313 50.2327 28.9303 50.2327 28.9293C50.2327 28.9283 50.2327 28.9273 50.2327 28.9263C50.2327 28.9253 50.2327 28.9243 50.2327 28.9233C50.2327 28.9223 50.2327 28.9213 50.2327 28.9203C50.2327 28.9193 50.2327 28.9183 50.2327 28.9174C50.2327 28.9164 50.2327 28.9154 50.2327 28.9144C50.2327 28.9135 50.2327 28.9125 50.2327 28.9115C50.2327 28.9106 50.2327 28.9096 50.2327 28.9086C50.2327 28.9077 50.2327 28.9067 50.2327 28.9058C50.2327 28.9048 50.2327 28.9039 50.2327 28.9029C50.2327 28.902 50.2327 28.901 50.2327 28.9001C50.2327 28.8991 50.2327 28.8982 50.2327 28.8973C50.2327 28.8963 50.2327 28.8954 50.2327 28.8945C50.2327 28.8935 50.2327 28.8926 50.2327 28.8917C50.2327 28.8908 50.2327 28.8898 50.2327 28.8889C50.2327 28.888 50.2327 28.8871 50.2327 28.8862C50.2327 28.8852 50.2327 28.8843 50.2327 28.8834C50.2327 28.8825 50.2327 28.8816 50.2327 28.8807C50.2327 28.8798 50.2327 28.8789 50.2327 28.878C50.2327 28.8771 50.2327 28.8762 50.2327 28.8753C50.2327 28.8744 50.2327 28.8735 50.2327 28.8726C50.2327 28.8718 50.2327 28.8709 50.2327 28.87C50.2327 28.8691 50.2327 28.8682 50.2327 28.8673C50.2327 28.8665 50.2327 28.8656 50.2327 28.8647C50.2327 28.8638 50.2327 28.863 50.2327 28.8621C50.2327 28.8612 50.2327 28.8604 50.2327 28.8595C50.2327 28.8586 50.2327 28.8578 50.2327 28.8569C50.2327 28.856 50.2327 28.8552 50.2327 28.8543C50.2327 28.8535 50.2327 28.8526 50.2327 28.8518C50.2327 28.8509 50.2327 28.8501 50.2327 28.8492C50.2327 28.8484 50.2327 28.8475 50.2327 28.8467C50.2327 28.8458 50.2327 28.845 50.2327 28.8441C50.2327 28.8433 50.2327 28.8425 50.2327 28.8416C50.2327 28.8408 50.2327 28.8399 50.2327 28.8391C50.2327 28.8383 50.2327 28.8374 50.2327 28.8366C50.2327 28.8358 50.2327 28.835 50.2327 28.8341C50.2327 28.8333 50.2327 28.8325 50.2327 28.8317C50.2327 28.8308 50.2327 28.83 50.2327 28.8292C50.2327 28.8284 50.2327 28.8276 50.2327 28.8267C50.2327 28.8259 50.2327 28.8251 50.2327 28.8243C50.2327 28.8235 50.2327 28.8227 50.2327 28.8219C50.2327 28.821 50.2327 28.8202 50.2327 28.8194C50.2327 28.8186 50.2327 28.8178 50.2327 28.817C50.2327 28.8162 50.2327 28.8154 50.2327 28.8146C50.2327 28.8138 50.2327 28.813 50.2327 28.8122C50.2327 28.8114 50.2327 28.8106 50.2327 28.8098C50.2327 28.809 50.2327 28.8082 50.2327 28.8074C50.2327 28.8066 50.2327 28.8058 50.2327 28.805C50.2327 28.8043 50.2327 28.8035 50.2327 28.8027C50.2327 28.8019 50.2327 28.8011 50.2327 28.8003C50.2327 28.7995 50.2327 28.7987 50.2327 28.7979C50.2327 28.7972 50.2327 28.7964 50.2327 28.7956C50.2327 28.7948 50.2327 28.794 50.2327 28.7932C50.2327 28.7925 50.2327 28.7917 50.2327 28.7909C50.2327 28.7901 50.2327 28.7893 50.2327 28.7886C50.2327 28.7878 50.2327 28.787 50.2327 28.7862C50.2327 28.7855 50.2327 28.7847 50.2327 28.7839C50.2327 28.7831 50.2327 28.7824 50.2327 28.7816C50.2327 28.7808 50.2327 28.78 50.2327 28.7793C50.2327 28.7785 50.2327 28.7777 50.2327 28.777C50.2327 28.7762 50.2327 28.7754 50.2327 28.7746C50.2327 28.7739 50.2327 28.7731 50.2327 28.7723C50.2327 28.7716 50.2327 28.7708 50.2327 28.77C50.2327 28.7693 50.2327 28.7685 50.2327 28.7677C50.2327 28.767 50.2327 28.7662 50.2327 28.7654C50.2327 28.7647 50.2327 28.7639 50.2327 28.7631C50.2327 28.7624 50.2327 28.7616 50.2327 28.7608C50.2327 28.7601 50.2327 28.7593 50.2327 28.7585C50.2327 28.7578 50.2327 28.757 50.2327 28.7562C50.2327 28.7555 50.2327 28.7547 50.2327 28.754C50.2327 28.7532 50.2327 28.7524 50.2327 28.7517C50.2327 28.7509 50.2327 28.7501 50.2327 28.7494C50.2327 28.7486 50.2327 28.7478 50.2327 28.7471C50.2327 28.7463 50.2327 28.7455 50.2327 28.7448C50.2327 28.744 50.2327 28.7433 50.2327 28.7425C50.2327 28.7417 50.2327 28.741 50.2327 28.7402C50.2327 28.7394 50.2327 28.7387 50.2327 28.7379C50.2327 28.7371 50.2327 28.7364 50.2327 28.7356C50.2327 28.7348 50.2327 28.7341 50.2327 28.7333C50.2327 28.7325 50.2327 28.7318 50.2327 28.731C50.2327 28.7302 50.2327 28.7295 50.2327 28.7287C50.2327 28.7279 50.2327 28.7272 50.2327 28.7264C50.2327 28.7256 50.2327 28.7249 50.2327 28.7241C50.2327 28.7233 50.2327 28.7226 50.2327 28.7218C50.2327 28.721 50.2327 28.7203 50.2327 28.7195C50.2327 28.7187 50.2327 28.7179 50.2327 28.7172C50.2327 28.7164 50.2327 28.7156 50.2327 28.7148C50.2327 28.7141 50.2327 28.7133 50.2327 28.7125C50.2327 28.7117 50.2327 28.711 50.2327 28.7102C50.2327 28.7094 50.2327 28.7086 50.2327 28.7079C50.2327 28.7071 50.2327 28.7063 50.2327 28.7055C50.2327 28.7047 50.2327 28.704 50.2327 28.7032C50.2327 28.7024 50.2327 28.7016 50.2327 28.7008C50.2327 28.7 50.2327 28.6993 50.2327 28.6985C50.2327 28.6977 50.2327 28.6969 50.2327 28.6961C50.2327 28.6953 50.2327 28.6945 50.2327 28.6937C50.2327 28.693 50.2327 28.6922 50.2327 28.6914C50.2327 28.6906 50.2327 28.6898 50.2327 28.689C50.2327 28.6882 50.2327 28.6874 50.2327 28.6866C50.2327 28.6858 50.2327 28.685 50.2327 28.6842C50.2327 28.6834 50.2327 28.6826 50.2327 28.6818C50.2327 28.681 50.2327 28.6802 50.2327 28.6794C50.2327 28.6786 50.2327 28.6778 50.2327 28.677C50.2327 28.6762 50.2327 28.6754 50.2327 28.6745C50.2327 28.6737 50.2327 28.6729 50.2327 28.6721C50.2327 28.6713 50.2327 28.6705 50.2327 28.6697C50.2327 28.6688 50.2327 28.668 50.2327 28.6672C50.2327 28.6664 50.2327 28.6656 50.2327 28.6647C50.2327 28.6639 50.2327 28.6631 50.2327 28.6623C50.2327 28.6614 50.2327 28.6606 50.2327 28.6598C50.2327 28.6589 50.2327 28.6581 50.2327 28.6573C50.2327 28.6564 50.2327 28.6556 50.2327 28.6548C50.2327 28.6539 50.2327 28.6531 50.2327 28.6522C50.2327 28.6514 50.2327 28.6506 50.2327 28.6497C50.2327 28.6489 50.2327 28.648 50.2327 28.6472C50.2327 28.6463 50.2327 28.6455 50.2327 28.6446C50.2327 28.6438 50.2327 28.6429 50.2327 28.642C50.2327 28.6412 50.2327 28.6403 50.2327 28.6395C50.2327 28.6386 50.2327 28.6377 50.2327 28.6369C50.2327 28.636 50.2327 28.6351 50.2327 28.6343C50.2327 28.6334 50.2327 28.6325 50.2327 28.6316C50.2327 28.6308 50.2327 28.6299 50.2327 28.629C50.2327 28.6281 50.2327 28.6272 50.2327 28.6263C50.2327 28.6255 50.2327 28.6246 50.2327 28.6237C50.2327 28.6228 50.2327 28.6219 50.2327 28.621C50.2327 28.6201 50.2327 28.6192 50.2327 28.6183C50.2327 28.6174 50.2327 28.6165 50.2327 28.6156C50.2327 28.6147 50.2327 28.6138 50.2327 28.6129C50.2327 28.612 50.2327 28.6111 50.2327 28.6101C50.2327 28.6092 50.2327 28.6083 50.2327 28.6074C50.2327 28.6065 50.2327 28.6055 50.2327 28.6046C50.2327 28.6037 50.2327 28.6028 50.2327 28.6018C50.2327 28.6009 50.2327 28.6 50.2327 28.599C50.2327 28.5981 50.2327 28.5971 50.2327 28.5962C50.2327 28.5953 50.2327 28.5943 50.2327 28.5934C50.2327 28.5924 50.2327 28.5915 50.2327 28.5905C50.2327 28.5895 50.2327 28.5886 50.2327 28.5876C50.2327 28.5867 50.2327 28.5857 50.2327 28.5847C50.2327 28.5838 50.2327 28.5828 50.2327 28.5818C50.2327 28.5808 50.2327 28.5799 50.2327 28.5789C50.2327 28.5779 50.2327 28.5769 50.2327 28.5759C50.2327 28.5749 50.2327 28.574 50.2327 28.573C50.2327 28.572 50.2327 28.571 50.2327 28.57C50.2327 28.569 50.2327 28.568 50.2327 28.567C50.2327 28.5659 50.2327 28.5649 50.2327 28.5639C50.2327 28.5629 50.2327 28.5619 50.2327 28.5609C50.2327 28.5599 50.2327 28.5588 50.2327 28.5578C50.2327 28.5568 50.2327 28.5557 50.2327 28.5547C50.2327 28.5537 50.2327 28.5526 50.2327 28.5516C50.2327 28.5505 50.2327 28.5495 50.2327 28.5485C50.2327 28.5474 50.2327 28.5463 50.2327 28.5453C50.2327 28.5442 50.2327 28.5432 50.2327 28.5421C50.2327 28.541 50.2327 28.54 50.2327 28.5389C50.2327 28.5378 50.2327 28.5368 50.2327 28.5357C50.2327 28.5346 50.2327 28.5335 50.2327 28.5324C50.2327 28.5313 50.2327 28.5302 50.2327 28.5292C50.2327 28.5281 50.2327 28.527 50.2327 28.5259C50.2327 28.5247 50.2327 28.5236 50.2327 28.5225C50.2327 28.5214 50.2327 28.5203 50.2327 28.5192C50.2327 28.5181 50.2327 28.5169 50.2327 28.5158C50.2327 28.5147 50.2327 28.5136 50.2327 28.5124C50.2327 28.5113 50.2327 28.5101 50.2327 28.509C50.2327 28.5078 50.2327 28.5067 50.2327 28.5055C50.2327 28.5044 50.2327 28.5032 50.2327 28.5021C50.2327 28.5009 50.2327 28.4997 50.2327 28.4986C50.2327 28.4974 50.2327 28.4962 50.2327 28.4951C50.2327 28.4939 50.2327 28.4927 50.2327 28.4915C50.2327 28.4903 50.2327 28.4891 50.2327 28.4879C50.2327 28.4867 50.2327 28.4855 50.2327 28.4843C50.2327 28.4831 50.2327 28.4819 50.2327 28.4807C50.2327 28.4795 50.2327 28.4782 50.2327 28.477C50.2327 28.4758 50.2327 28.4746 50.2327 28.4733C50.2327 28.4721 50.2327 28.4709 50.2327 28.4696C50.2327 28.4684 50.2327 28.4671 50.2327 28.4659C50.2327 28.4646 50.2327 28.4634 50.2327 28.4621C50.2327 28.4608 50.2327 28.4596 50.2327 28.4583C50.2327 28.457 50.2327 28.4557 50.2327 28.4545C50.2327 28.4532 50.2327 28.4519 50.2327 28.4506C50.2327 28.4493 50.2327 28.448 50.2327 28.4467C50.2327 28.4454 50.2327 28.4441 50.2327 28.4428C50.2327 28.4415 50.2327 28.4401 50.2327 28.4388C50.2327 28.4375 50.2327 28.4362 50.2327 28.4348C50.2327 28.4335 50.2327 28.4322 50.2327 28.4308C50.2327 28.4295 50.2327 28.4281 50.2327 28.4268C50.2327 28.4254 50.2327 28.4241 50.2327 28.4227C50.2327 28.4213 50.2327 28.42 50.2327 28.4186C50.2327 28.4172 50.2327 28.4158 50.2327 28.4144C50.2327 28.413 50.2327 28.4117 50.2327 28.4103C50.2327 28.4089 50.2327 28.4075 50.2327 28.406C50.2327 28.4046 50.2327 28.4032 50.2327 28.4018C50.2327 28.4004 50.2327 28.399 50.2327 28.3975C50.2327 28.3961 50.2327 28.3947 50.2327 28.3932C50.2327 28.3918 50.2327 28.3903 50.2327 28.3889C50.2327 28.3874 50.2327 28.386 50.2327 28.3845C50.2327 28.383 50.2327 28.3816 50.2327 28.3801C50.2327 28.3786 50.2327 28.3771 50.2327 28.3756C50.2327 28.3741 50.2327 28.3727 50.2327 28.3712C50.2327 28.3697 50.2327 28.3681 50.2327 28.3666C50.2327 28.3651 50.2327 28.3636 50.2327 28.3621C50.2327 28.3606 50.2327 28.359 50.2327 28.3575C50.2327 28.356 50.2327 28.3544 50.2327 28.3529C50.2327 28.3513 50.2327 28.3498 50.2327 28.3482C50.2327 28.3466 50.2327 28.3451 50.2327 28.3435C50.2327 28.3419 50.2327 28.3403 50.2327 28.3388C50.2327 28.3372 50.2327 28.3356 50.2327 28.334C50.2327 28.3324 50.2327 28.3308 50.2327 28.3292C50.2327 28.3276 50.2327 28.3259 50.2327 28.3243C50.2327 28.3227 50.2327 28.3211 50.2327 28.3194C50.2327 28.3178 50.2327 28.3162 50.2327 28.3145C50.2327 28.3129 50.2327 28.3112 50.2327 28.3095C50.2327 28.3079 50.2327 28.3062 50.2327 28.3045C50.2327 28.3029 50.2327 28.3012 50.2327 28.2995C50.2327 28.2978 50.2327 28.2961 50.2327 28.2944C50.2327 28.2927 50.2327 28.291 50.2327 28.2893C50.2327 28.2876 50.2327 28.2859 50.2327 28.2841C50.2327 28.2824 50.2327 28.2807 50.2327 28.2789C50.2327 28.2772 50.2327 28.2754 50.2327 28.2737C50.2327 28.2719 50.2327 28.2702 50.2327 28.2684C50.2327 28.2666 50.2327 28.2648 50.2327 28.2631C50.2327 28.2613 50.2327 28.2595 50.2327 28.2577C50.2327 28.2559 50.2327 28.2541 50.2327 28.2523C50.2327 28.2505 50.2327 28.2486 50.2327 28.2468C50.2327 28.245 50.2327 28.2432 50.2327 28.2413C50.2327 28.2395 50.2327 28.2376 50.2327 28.2358C50.2327 28.2339 50.2327 28.2321 50.2327 28.2302C50.2327 28.2283 50.2327 28.2265 50.2327 28.2246C50.2327 28.2227 50.2327 28.2208 50.2327 28.2189C50.2327 28.217 50.2327 28.2151 50.2327 28.2132C50.2327 28.2113 50.2327 28.2094 50.2327 28.2074C50.2327 28.2055 50.2327 28.2036 50.2327 28.2016C50.2327 28.1997 50.2327 28.1977 50.2327 28.1958C50.2327 28.1938 50.2327 28.1919 50.2327 28.1899C50.2327 28.1879 50.2327 28.1859 50.2327 28.1839C50.2327 28.182 50.2327 28.18 50.2327 28.178C50.2327 28.176 50.2327 28.174 50.2327 28.1719C50.2327 28.1699 50.2327 28.1679 50.2327 28.1659C50.2327 28.1638 50.2327 28.1618 50.2327 28.1597C50.2327 28.1577 50.2327 28.1556 50.2327 28.1536C50.2327 28.1515 50.2327 28.1494 50.2327 28.1474C50.2327 28.1453 50.2327 28.1432 50.2327 28.1411C50.2327 28.139 50.2327 28.1369 50.2327 28.1348C50.2327 28.1327 50.2327 28.1305 50.2327 28.1284C50.2327 28.1263 50.2327 28.1242 50.2327 28.122C50.2327 28.1199 50.2327 28.1177 50.2327 28.1156C50.2327 28.1134 50.2327 28.1112 50.2327 28.109C50.2327 28.1069 50.2327 28.1047 50.2327 28.1025C50.2327 28.1003 50.2327 28.0981 50.2327 28.0959C50.2327 28.0937 50.2327 28.0915 50.2327 28.0892C50.2327 28.087 50.2327 28.0848 50.2327 28.0825C50.2327 28.0803 50.2327 28.078 50.2327 28.0758C50.2327 28.0735 50.2327 28.0713 50.2327 28.069C50.2327 28.0667 50.2327 28.0644 50.2327 28.0621C50.2327 28.0598 50.2327 28.0575 50.2327 28.0552C50.2327 28.0529 50.2327 28.0506 50.2327 28.0483C50.2327 28.0459 50.2327 28.0436 50.2327 28.0412C50.2327 28.0389 50.2327 28.0365 50.2327 28.0342C50.2327 28.0318 50.2327 28.0295 50.2327 28.0271C50.2327 28.0247 50.2327 28.0223 50.2327 28.0199C50.2327 28.0175 50.2327 28.0151 50.2327 28.0127C50.2327 28.0103 50.2327 28.0079 50.2327 28.0054C50.2327 28.003 50.2327 28.0005 50.2327 27.9981C50.2327 27.9956 50.2327 27.9932 50.2327 27.9907C50.2327 27.9882 50.2327 27.9858 50.2327 27.9833C50.2327 27.9808 50.2327 27.9783 50.2327 27.9758C50.2327 27.9733 50.2327 27.9708 50.2327 27.9683C50.2327 27.9657 50.2327 27.9632 50.2327 27.9607C50.2327 27.9581 50.2327 27.9556 50.2327 27.953C50.2327 27.9504 50.2327 27.9479 50.2327 27.9453C50.2327 27.9427 50.2327 27.9401 50.2327 27.9375C50.2327 27.9349 50.2327 27.9323 50.2327 27.9297C50.2327 27.9271 50.2327 27.9245 50.2327 27.9218C50.2327 27.9192 50.2327 27.9166 50.2327 27.9139C50.2327 27.9113 50.2327 27.9086 50.2327 27.9059C50.2327 27.9033 50.2327 27.9006 50.2327 27.8979C50.2327 27.8952 50.2327 27.8925 50.2327 27.8898C50.2327 27.8871 50.2327 27.8844 50.2327 27.8816C50.2327 27.8789 50.2327 27.8762 50.2327 27.8734C50.2327 27.8707 50.2327 27.8679 50.2327 27.8651C50.2327 27.8624 50.2327 27.8596 50.2327 27.8568C50.2327 27.854 50.2327 27.8512 50.2327 27.8484C50.2327 27.8456 50.2327 27.8428 50.2327 27.84C50.2327 27.8371 50.2327 27.8343 50.2327 27.8314C50.2327 27.8286 50.2327 27.8257 50.2327 27.8229C50.2327 27.82 50.2327 27.8171 50.2327 27.8142C50.2327 27.8114 50.2327 27.8085 50.2327 27.8055C50.2327 27.8026 50.2327 27.7997 50.2327 27.7968C50.2327 27.7939 50.2327 27.7909 50.2327 27.788C50.2327 27.785 50.2327 27.7821 50.2327 27.7791C50.2327 27.7761 50.2327 27.7732 50.2327 27.7702C50.2327 27.7672 50.2327 27.7642 50.2327 27.7612C50.2327 27.7582 50.2327 27.7552 50.2327 27.7521C50.2327 27.7491 50.2327 27.7461 50.2327 27.743C50.2327 27.74 50.2327 27.7369 50.2327 27.7338C50.2327 27.7308 50.2327 27.7277 50.2327 27.7246C50.2327 27.7215 50.2327 27.7184 50.2327 27.7153C50.2327 27.7122 50.2327 27.709 50.2327 27.7059C50.2327 27.7028 50.2327 27.6996 50.2327 27.6965C50.2327 27.6933 50.2327 27.6901 50.2327 27.687C50.2327 27.6838 50.2327 27.6806 50.2327 27.6774C50.2327 27.6742 50.2327 27.671 50.2327 27.6678C50.2327 27.6646 50.2327 27.6613 50.2327 27.6581C50.2327 27.6548 50.2327 27.6516 50.2327 27.6483C50.2327 27.6451 50.2327 27.6418 50.2327 27.6385C50.2327 27.6352 50.2327 27.6319 50.2327 27.6286C50.2327 27.6253 50.2327 27.622 50.2327 27.6187C50.2327 27.6153 50.2327 27.612 50.2327 27.6086C50.2327 27.6053 50.2327 27.6019 50.2327 27.5985C50.2327 27.5952 50.2327 27.5918 50.2327 27.5884C50.2327 27.585 50.2327 27.5816 50.2327 27.5782C50.2327 27.5748 50.2327 27.5713 50.2327 27.5679C50.2327 27.5644 50.2327 27.561 50.2327 27.5575C50.2327 27.5541 50.2327 27.5506 50.2327 27.5471C50.2327 27.5436 50.2327 27.5401 50.2327 27.5366C50.2327 27.5331 50.2327 27.5296 50.2327 27.5261C50.2327 27.5225 50.2327 27.519 50.2327 27.5154C50.2327 27.5119 50.2327 27.5083 50.2327 27.5047C50.2327 27.5012 50.2327 27.4976 50.2327 27.494C50.2327 27.4904 50.2327 27.4867 50.2327 27.4831C50.2327 27.4795 50.2327 27.4759 50.2327 27.4722C50.2327 27.4686 50.2327 27.4649 50.2327 27.4612C50.2327 27.4576 50.2327 27.4539 50.2327 27.4502H45.7327ZM25.4913 10.5C27.4869 10.5 29.411 10.7807 31.2264 11.3021L32.4686 6.977C30.2528 6.3406 27.9107 6 25.4913 6V10.5ZM31.2264 11.3021C31.8214 11.473 34.0376 12.3685 35.0571 12.8391L36.9429 8.7533C35.8837 8.2644 33.41 7.2473 32.4686 6.977L31.2264 11.3021Z" fill="#F77881"/>
<path d="M3 30.2225H47.9827" stroke="#F77881" stroke-width="4.5" stroke-linecap="round" stroke-linejoin="round"/>
<path d="M25.4975 8.25C31.1233 14.2655 34.3204 22.0721 34.4941 30.2176C34.3204 38.3631 31.1233 46.1696 25.4975 52.1851C19.8718 46.1696 16.6747 38.3631 16.501 30.2176C16.6747 22.0721 19.8718 14.2655 25.4975 8.25Z" stroke="#F77881" stroke-width="4.5" stroke-linecap="round" stroke-linejoin="round"/>
<path d="M58.0454 17.4711L51.8641 26.3072C51.704 26.5363 51.5004 26.7316 51.2647 26.882C51.0291 27.0323 50.7661 27.1348 50.4909 27.1834C50.2156 27.2321 49.9335 27.226 49.6606 27.1656C49.3877 27.1051 49.1294 26.9915 48.9005 26.8311L38.3162 19.4361L36.4648 8.96383L46.9372 7.11243L57.5233 14.5178C57.9828 14.8413 58.2956 15.3334 58.3934 15.8868C58.4912 16.4401 58.3661 17.0097 58.0454 17.4711Z" stroke="#463D57" stroke-width="3" stroke-linecap="round" stroke-linejoin="round"/>
<path d="M42.627 13.274L42.6406 13.2716" stroke="#463D57" stroke-width="2" stroke-linecap="round" stroke-linejoin="round"/>
</svg>
